# xmcd
#
# Track frame offsets:
#	150
#	11110
#	32572
#	49854
#	71315
#	90847
#	112726
#	133972
#	157534
#	178752
#	188103
#	211156
#	233453
#	254824
#	278532
#	297536
#	323491
#
# Disc length: 4518 seconds
#
# Revision: 0
# Processed by: cddbd v1.4PL0 Copyright (c) Steve Scherf et al.
# Submitted via: dBpowerAMP V4.0
#
DISCID=dd11a411
DTITLE=Drecon - Demo pt. 5
DYEAR=1900
DGENRE=
TTITLE0=Magic Voice
TTITLE1=D.R.E.C.O.N.
TTITLE2=Can't Stop Won't Stop
TTITLE3=Let's Go Back
TTITLE4=Realest People
TTITLE5=Let's Go Back Again (La La La)
TTITLE6=Inspiration
TTITLE7=I Be
TTITLE8=Let's Go
TTITLE9=Freestyle
TTITLE10=Beat1
TTITLE11=beat2
TTITLE12=beat3
TTITLE13=beat4
TTITLE14=beat5
TTITLE15=beat6
TTITLE16=beat7
EXTD=My name is Drecon. The CD contains 17 song, nothin but fire!
EXTT0=
EXTT1=
EXTT2=
EXTT3=
EXTT4=
EXTT5=
EXTT6=
EXTT7=
EXTT8=
EXTT9=
EXTT10=
EXTT11=
EXTT12=
EXTT13=
EXTT14=
EXTT15=
EXTT16=
PLAYORDER=
